<?xml version="1.0" encoding="UTF-8"?> <svg xmlns="http://www.w3.org/2000/svg" id="Calque_2" data-name="Calque 2" viewBox="0 0 634.6 263.01"><defs><style> .cls-1 { fill: #6f7072; } .cls-1, .cls-2 { stroke-width: 0px; } .cls-2 { fill: #fff; } </style></defs><g id="Calque_1-2" data-name="Calque 1"><g><path class="cls-2" d="M592.46,101.62h20.5c.33,1.4,21.64,149.16,21.64,149.16l-27.97.28-12.25-87.75s-29.08,79.86-32.74,90.06h-9.79c-.27-.54-32.45-90.39-32.45-90.39l-12.63,87.8h-28.78s24.5-149.08,24.5-149.08h20.17s29.5,78.7,36.07,94.43c11.22-31.43,22.44-62.86,33.74-94.51Z"></path><path class="cls-2" d="M380.88,69.2s33.13,4.29,39.41,5.11c14.83,1.96,28.25,7.04,39.51,17.29,10.27,9.35,16.91,20.72,20.22,34.15,2.37,9.62,2.63,19.31,1.62,29.12-.99,9.64-3.66,18.74-7.94,27.4-4.31,8.71-10.23,16.24-17.7,22.37-9.48,7.79-20.37,12.76-32.61,14.46-8.36,1.16-16.7.94-25.05-.38-5.93-.94-36.22-5.13-36.22-5.13l18.76-144.39ZM393.89,192.54c.61.28.89.49,1.19.52,7.81.95,15.62,1.47,23.44.17,10.12-1.68,18.28-6.55,24.27-14.95,3.99-5.6,6.4-11.84,7.88-18.55,1.3-5.9,2.24-11.85,2.24-17.85,0-5.13-.7-10.26-2.29-15.23-2.41-7.5-6.54-13.74-12.94-18.39-8.52-6.19-18.34-8.71-28.59-9.97-.91-.11-1.86.08-3.09.15-4.05,31.45-8.07,62.69-12.11,94.09Z"></path><path class="cls-1" d="M304.4,205.82c.35-10.61-.3-20.74-2.16-30.94-1.2-.32-2.31-.72-3.45-.92-14.43-2.53-26.72-9.08-37.25-19.24-6.19-5.97-11.25-12.71-15.26-20.27-4.48-8.45-7.22-17.47-8.43-26.95-2.31-18.14.4-35.41,9.5-51.42,6.4-11.27,15.22-20.16,26.69-26.43,12.39-6.76,25.62-9.23,39.55-8.2,4.13.31,8.21,1.43,12.54,2.22,2.61,11.33,5.15,22.35,7.68,33.38-.22.16-.44.32-.65.48-.87-.51-1.76-.97-2.6-1.52-8.52-5.62-17.94-8.02-27.98-6.72-12.44,1.61-22.15,7.91-28.63,18.8-3.86,6.48-5.83,13.48-6.55,21.04-.71,7.53.03,14.79,2.01,21.98,2.18,7.89,6.09,14.81,11.5,21.02,5.62,6.43,12.25,11.19,20.47,13.37,10.54,2.79,20.68,1.62,30.13-4.13,6.37-3.87,16.26-16.45,16.76-17.07,1.38,2.37,7.68,33.3,7.68,33.3,0,0-24.18,16.21-39.49,17.13.9,10.73,1.78,21.16,2.67,31.79,2.64.85,5.19-.28,7.73-.87,5.89-1.37,11.06-4.26,15.5-8.29,2.88-2.62,6.34-2.97,9.85-3.36,1.41-.16,2.79.2,3.88,1.82-4.36,5.79-10.51,9.23-16.92,12.2-6.37,2.96-13.15,4.62-20.29,5.48-.29,2.4-.63,4.61-.8,6.83-.29,3.96-.34,7.95-.74,11.89-.82,7.9-1.81,15.79-2.74,23.68-.16,1.39-.36,2.77-.56,4.15-.18,1.26-.79,2.2-2.04,2.67-2.74,1.04-9.79-.84-12.11-3.45,2.18-14.89,4.24-30.06,4.6-45.6-14.04-1.29-26.36-5.86-37-14.53-1.04-.85-1.85-1.97-2.96-3.18.75-.86,1.16-1.76,1.83-2.03,2.37-.97,4.78-1.91,7.25-2.52,1.97-.49,3.69.36,5.28,1.76,6.56,5.8,14.15,9.73,22.56,12.09.82.23,1.67.33,2.95.57Z"></path><path class="cls-2" d="M56.57,101.67h22.42l54.94,149.03-30.51.71s-7.39-20.18-11.05-30.19h-50.38c-3.92,10.03-11.72,29.95-11.72,29.95H0L56.57,101.67ZM66.97,144.95l-16.46,51.7,33.45-.2-16.99-51.5Z"></path><path class="cls-2" d="M238.61,219.4c-7.32,5.2-14.74,9.23-22.88,11.89-8.21,2.69-16.67,3.17-25.17,2.6-10.26-.69-19.76-4.07-28.64-9.18-8.88-5.11-16.3-11.9-22.36-20.15-5.58-7.61-9.61-15.99-12.34-25.04-2-6.64-2.8-13.41-3.17-20.3-.6-11.33,1.35-22.21,5.26-32.79,4.31-11.64,11.21-21.52,20.51-29.66,7.8-6.84,16.84-11.45,26.91-14.07,5.46-1.42,10.96-1.87,16.57-2.09,7.64-.31,14.92,1.14,22.12,3.35.7.22,1.34.63,2.14,1.01,1.73,10.88,3.45,21.75,5.26,33.19-1.05-.55-1.6-.74-2.05-1.08-8.57-6.4-18.1-9.93-28.9-9.11-8.7.66-16.44,3.72-23.04,9.66-7.41,6.68-11.77,15.01-13.85,24.59-1.53,7.05-1.92,14.13-.77,21.38,1.58,9.91,5.18,18.83,11.42,26.65,6.45,8.09,14.64,13.76,24.87,15.61,11.56,2.08,22.14-.72,31.45-8.05,3.84-3.02,11.22-11.64,11.22-11.64,0,0,4.81,29.3,5.41,33.21Z"></path><path class="cls-1" d="M300.9,0c3.66-.13,6.29,1.11,8,3.89,2.57,4.17,1.01,9.19-3.4,11.41-4.43,2.23-9.77.4-12.23-3.64-2.94-4.83,1.26-11.56,6.74-11.66.43,0,.86,0,.89,0Z"></path><path class="cls-1" d="M267.3,9.59c5.16.02,8.51,3.41,8.78,8.22.25,4.41-4.93,8.35-9.03,8.1-4.83-.29-9.16-3.95-8.84-8.39.28-3.93,2.7-8.1,9.09-7.93Z"></path></g></g></svg> 