<svg xmlns="http://www.w3.org/2000/svg" id="Calque_2" viewBox="0 0 1452.23 1369.74"><defs><style>.cls-1{fill:#36a6d8;stroke-width:0px;}</style></defs><g id="Calque_1-2"><circle class="cls-1" cx="678.3" cy="669.46" r="30.82"></circle><circle class="cls-1" cx="678.3" cy="573.82" r="30.82" transform="translate(-111.42 980.9) rotate(-67.5)"></circle><circle class="cls-1" cx="582.66" cy="669.46" r="30.82"></circle><circle class="cls-1" cx="582.66" cy="573.82" r="30.82" transform="translate(-170.46 892.54) rotate(-67.5)"></circle><circle class="cls-1" cx="678.3" cy="478.18" r="30.82"></circle><circle class="cls-1" cx="678.3" cy="382.55" r="30.82"></circle><circle class="cls-1" cx="582.66" cy="478.18" r="30.82"></circle><circle class="cls-1" cx="582.66" cy="382.55" r="30.82"></circle><circle class="cls-1" cx="487.02" cy="669.46" r="30.82" transform="translate(-330.73 540.46) rotate(-45)"></circle><circle class="cls-1" cx="487.02" cy="573.82" r="30.82" transform="translate(-263.11 512.45) rotate(-45)"></circle><circle class="cls-1" cx="391.39" cy="669.46" r="30.82" transform="translate(-143.34 107.83) rotate(-13.28)"></circle><circle class="cls-1" cx="391.39" cy="573.82" r="30.82" transform="translate(-291.12 444.82) rotate(-45)"></circle><circle class="cls-1" cx="487.02" cy="478.18" r="30.82"></circle><circle class="cls-1" cx="487.02" cy="382.55" r="30.82" transform="translate(-74.86 122.13) rotate(-13.28)"></circle><circle class="cls-1" cx="391.39" cy="478.18" r="30.82"></circle><circle class="cls-1" cx="391.39" cy="382.55" r="30.82" transform="translate(-77.42 100.16) rotate(-13.28)"></circle><circle class="cls-1" cx="678.3" cy="286.91" r="30.82" transform="translate(153.66 803.78) rotate(-67.5)"></circle><circle class="cls-1" cx="678.3" cy="191.27" r="30.82" transform="translate(63.42 535.65) rotate(-45)"></circle><circle class="cls-1" cx="582.66" cy="286.91" r="30.82" transform="translate(-32.22 496.04) rotate(-45)"></circle><circle class="cls-1" cx="582.66" cy="191.27" r="30.82" transform="translate(-23.11 95.8) rotate(-9.22)"></circle><circle class="cls-1" cx="678.3" cy="95.63" r="30.82" transform="translate(131.05 507.64) rotate(-45)"></circle><path class="cls-1" d="M678.3,30.81c16.96,0,30.71-13.7,30.81-30.63-20.84-.4-41.42-.15-61.61.72.48,16.6,14.08,29.91,30.8,29.91Z"></path><circle class="cls-1" cx="582.66" cy="95.63" r="30.82" transform="translate(-7.79 94.57) rotate(-9.22)"></circle><path class="cls-1" d="M582.66,30.81c16.01,0,29.16-12.2,30.67-27.81-20.48,1.65-40.46,3.97-59.84,6.94,4.14,12.14,15.63,20.87,29.17,20.87Z"></path><circle class="cls-1" cx="487.02" cy="286.91" r="30.82"></circle><circle class="cls-1" cx="487.02" cy="191.27" r="30.82"></circle><circle class="cls-1" cx="391.39" cy="286.91" r="30.82"></circle><circle class="cls-1" cx="391.39" cy="191.27" r="30.82"></circle><circle class="cls-1" cx="487.02" cy="95.63" r="30.82" transform="translate(212.3 508.99) rotate(-67.5)"></circle><path class="cls-1" d="M512.44,17.42c-13.69,2.89-27.06,6.11-40.09,9.68,4.36,2.37,9.36,3.71,14.68,3.71,10.55,0,19.86-5.3,25.41-13.39Z"></path><circle class="cls-1" cx="391.39" cy="95.63" r="30.82" transform="translate(-11.5 92.48) rotate(-13.28)"></circle><circle class="cls-1" cx="295.75" cy="669.46" r="30.82"></circle><circle class="cls-1" cx="295.75" cy="573.82" r="30.82"></circle><circle class="cls-1" cx="200.11" cy="669.46" r="30.82"></circle><circle class="cls-1" cx="200.11" cy="573.82" r="30.82"></circle><circle class="cls-1" cx="295.75" cy="478.18" r="30.82"></circle><circle class="cls-1" cx="295.75" cy="382.55" r="30.82"></circle><circle class="cls-1" cx="200.11" cy="478.18" r="30.82"></circle><circle class="cls-1" cx="200.11" cy="382.55" r="30.82"></circle><circle class="cls-1" cx="104.47" cy="669.46" r="30.82" transform="translate(-442.78 269.95) rotate(-45)"></circle><circle class="cls-1" cx="104.47" cy="573.82" r="30.82" transform="translate(-129.04 39.35) rotate(-13.28)"></circle><path class="cls-1" d="M39.65,669.46c0-17.02-13.8-30.82-30.82-30.82-2.15,0-4.24.22-6.26.64C.81,659.15-.07,679.07,0,698.99c2.8.84,5.76,1.29,8.83,1.29,17.02,0,30.82-13.8,30.82-30.82Z"></path><path class="cls-1" d="M39.65,573.82c0-14-9.34-25.82-22.14-29.57-4.48,20.01-8.16,40.12-10.97,60.29.76.06,1.52.09,2.29.09,17.02,0,30.82-13.8,30.82-30.82Z"></path><circle class="cls-1" cx="104.47" cy="478.18" r="30.82"></circle><circle class="cls-1" cx="104.47" cy="382.55" r="30.82" transform="translate(-85.1 34.24) rotate(-13.28)"></circle><path class="cls-1" d="M39.65,478.18c0-3.29-.52-6.46-1.48-9.43-.38,1.2-.77,2.39-1.14,3.59-3.16,9.92-6.14,19.89-8.93,29.88,7.04-5.65,11.55-14.32,11.55-24.04Z"></path><circle class="cls-1" cx="295.75" cy="286.91" r="30.82" transform="translate(-42.14 51.08) rotate(-9.22)"></circle><circle class="cls-1" cx="295.75" cy="191.27" r="30.82" transform="translate(-48.63 265.15) rotate(-45)"></circle><circle class="cls-1" cx="200.11" cy="286.91" r="30.82" transform="translate(-144.26 225.53) rotate(-45)"></circle><path class="cls-1" d="M200.11,222.09c17.02,0,30.82-13.8,30.82-30.82,0-9.79-4.57-18.51-11.69-24.16-14.98,14.15-29.09,28.98-42.35,44.4,5.65,6.48,13.96,10.58,23.23,10.58Z"></path><path class="cls-1" d="M326.57,95.63c0-2.71-.35-5.33-1.01-7.83-17.15,9.93-33.52,20.56-49.11,31.85,5.28,4.25,11.99,6.8,19.3,6.8,17.02,0,30.82-13.8,30.82-30.82Z"></path><path class="cls-1" d="M135.29,286.91c0-5.57-1.48-10.79-4.07-15.3-10.06,15-19.48,30.37-28.3,46.08.51.03,1.03.04,1.55.04,17.02,0,30.82-13.8,30.82-30.82Z"></path><path class="cls-1" d="M1412.58,669.46c0,17.02,13.8,30.82,30.82,30.82.84,0,1.66-.04,2.48-.11,2.5-20.29,4.28-40.49,5.31-60.53-2.49-.65-5.1-1-7.79-1-17.02,0-30.82,13.8-30.82,30.82Z"></path><path class="cls-1" d="M1412.58,573.82c0,17.02,13.8,30.82,30.82,30.82,3.07,0,6.02-.45,8.82-1.29.1-20.13-.6-40.03-2.13-59.61-2.16-.48-4.39-.74-6.69-.74-17.02,0-30.82,13.8-30.82,30.82Z"></path><circle class="cls-1" cx="1347.76" cy="669.46" r="30.82" transform="translate(213.5 1658.44) rotate(-67.5)"></circle><circle class="cls-1" cx="1347.76" cy="573.82" r="30.82"></circle><path class="cls-1" d="M1412.58,478.18c0,17.02,13.8,30.82,30.82,30.82,1.03,0,2.04-.05,3.04-.15-2.73-20.59-6.45-40.76-11.18-60.39-13.07,3.57-22.68,15.52-22.68,29.73Z"></path><path class="cls-1" d="M1423.01,405.65c-3.11-9.31-6.48-18.47-10.12-27.47-.2,1.43-.31,2.88-.31,4.37,0,9.2,4.04,17.45,10.43,23.1Z"></path><circle class="cls-1" cx="1347.76" cy="478.18" r="30.82" transform="translate(56.62 1093.07) rotate(-45)"></circle><circle class="cls-1" cx="1347.76" cy="382.55" r="30.82" transform="translate(-51.84 319.89) rotate(-13.28)"></circle><circle class="cls-1" cx="1252.13" cy="669.46" r="30.82" transform="translate(-120.31 305.59) rotate(-13.28)"></circle><circle class="cls-1" cx="1252.13" cy="573.82" r="30.82"></circle><circle class="cls-1" cx="1156.49" cy="669.46" r="30.82" transform="translate(-134.65 1013.84) rotate(-45)"></circle><circle class="cls-1" cx="1156.49" cy="573.82" r="30.82"></circle><circle class="cls-1" cx="1252.13" cy="478.18" r="30.82" transform="translate(-76.37 300.47) rotate(-13.28)"></circle><circle class="cls-1" cx="1252.13" cy="382.55" r="30.82" transform="translate(96.24 997.43) rotate(-45)"></circle><circle class="cls-1" cx="1156.49" cy="478.18" r="30.82" transform="translate(-61.66 191.42) rotate(-9.22)"></circle><circle class="cls-1" cx="1156.49" cy="382.55" r="30.82" transform="translate(68.23 929.81) rotate(-45)"></circle><path class="cls-1" d="M1316.94,286.91c0,17.02,13.8,30.82,30.82,30.82,11.02,0,20.69-5.79,26.14-14.5-10.36-16.06-21.69-31.44-33.88-46.16-13.27,3.44-23.07,15.49-23.07,29.84Z"></path><circle class="cls-1" cx="1252.13" cy="286.91" r="30.82" transform="translate(-32.42 295.35) rotate(-13.28)"></circle><path class="cls-1" d="M1221.31,191.27c0,17.02,13.8,30.82,30.82,30.82,14.83,0,27.2-10.47,30.15-24.42-13.66-12.07-27.96-23.56-42.84-34.48-10.69,4.84-18.13,15.59-18.13,28.08Z"></path><circle class="cls-1" cx="1156.49" cy="286.91" r="30.82" transform="translate(-34.98 273.38) rotate(-13.28)"></circle><circle class="cls-1" cx="1156.49" cy="191.27" r="30.82" transform="translate(203.48 873.78) rotate(-45)"></circle><path class="cls-1" d="M1156.49,126.45c6.57,0,12.66-2.06,17.66-5.57-15.75-9.01-31.94-17.5-48.48-25.48,0,.08,0,.15,0,.23,0,17.02,13.8,30.82,30.82,30.82Z"></path><circle class="cls-1" cx="1060.85" cy="669.46" r="30.82" transform="translate(-162.66 946.21) rotate(-45)"></circle><circle class="cls-1" cx="1060.85" cy="573.82" r="30.82" transform="translate(124.74 1334.33) rotate(-67.5)"></circle><circle class="cls-1" cx="965.21" cy="669.46" r="30.82" transform="translate(-22.66 1305.01) rotate(-67.5)"></circle><circle class="cls-1" cx="965.21" cy="573.82" r="30.82" transform="translate(65.7 1245.97) rotate(-67.5)"></circle><circle class="cls-1" cx="1060.85" cy="478.18" r="30.82" transform="translate(-27.41 890.19) rotate(-45)"></circle><circle class="cls-1" cx="1060.85" cy="382.55" r="30.82" transform="translate(-47.58 174.87) rotate(-9.22)"></circle><circle class="cls-1" cx="965.21" cy="478.18" r="30.82" transform="translate(-55.42 822.56) rotate(-45)"></circle><circle class="cls-1" cx="965.21" cy="382.55" r="30.82" transform="translate(-62.07 231.99) rotate(-13.28)"></circle><circle class="cls-1" cx="869.57" cy="669.46" r="30.82" transform="translate(-130.55 217.7) rotate(-13.28)"></circle><circle class="cls-1" cx="869.57" cy="573.82" r="30.82" transform="translate(-80.69 146.7) rotate(-9.22)"></circle><circle class="cls-1" cx="773.94" cy="669.46" r="30.82" transform="translate(-246.7 743.34) rotate(-45)"></circle><circle class="cls-1" cx="773.94" cy="573.82" r="30.82" transform="translate(-81.92 131.38) rotate(-9.22)"></circle><circle class="cls-1" cx="869.57" cy="478.18" r="30.82" transform="translate(-86.6 212.58) rotate(-13.28)"></circle><circle class="cls-1" cx="869.57" cy="382.55" r="30.82" transform="translate(-15.81 726.93) rotate(-45)"></circle><circle class="cls-1" cx="773.94" cy="478.18" r="30.82" transform="translate(-66.6 130.15) rotate(-9.22)"></circle><circle class="cls-1" cx="773.94" cy="382.55" r="30.82" transform="translate(-43.82 659.3) rotate(-45)"></circle><circle class="cls-1" cx="1060.85" cy="286.91" r="30.82"></circle><circle class="cls-1" cx="1060.85" cy="191.27" r="30.82"></circle><circle class="cls-1" cx="965.21" cy="286.91" r="30.82"></circle><circle class="cls-1" cx="965.21" cy="191.27" r="30.82"></circle><path class="cls-1" d="M1030.03,95.63c0,17.02,13.8,30.82,30.82,30.82s30.82-13.8,30.82-30.82c0-6.82-2.22-13.11-5.96-18.22-10.03-4.21-20.17-8.24-30.4-12.09-14.37,2.61-25.27,15.19-25.27,30.31Z"></path><circle class="cls-1" cx="965.21" cy="95.63" r="30.82"></circle><circle class="cls-1" cx="869.57" cy="286.91" r="30.82" transform="translate(-42.66 207.46) rotate(-13.28)"></circle><circle class="cls-1" cx="869.57" cy="191.27" r="30.82" transform="translate(-20.68 204.9) rotate(-13.28)"></circle><circle class="cls-1" cx="773.94" cy="286.91" r="30.82" transform="translate(-45.21 185.49) rotate(-13.28)"></circle><circle class="cls-1" cx="773.94" cy="191.27" r="30.82" transform="translate(91.43 603.28) rotate(-45)"></circle><circle class="cls-1" cx="869.57" cy="95.63" r="30.82" transform="translate(-4.09 140.52) rotate(-9.22)"></circle><path class="cls-1" d="M869.57,30.81c9.49,0,17.98-4.3,23.64-11.05-17.46-3.39-34.97-6.34-52.45-8.85,4.41,11.63,15.65,19.89,28.82,19.89Z"></path><circle class="cls-1" cx="773.94" cy="95.63" r="30.82" transform="translate(159.06 575.27) rotate(-45)"></circle><path class="cls-1" d="M773.94,30.81c14.86,0,27.27-10.52,30.17-24.52-20.44-2.23-40.79-3.86-60.96-4.9.73,16.37,14.23,29.43,30.78,29.43Z"></path><circle class="cls-1" cx="678.3" cy="1338.93" r="30.82" transform="translate(-748.09 871.79) rotate(-45)"></circle><path class="cls-1" d="M613.48,1338.93c0-17.02-13.8-30.82-30.82-30.82s-30.82,13.8-30.82,30.82c0,5.32,1.35,10.33,3.73,14.7,13.34,4.7,26.77,9.09,40.28,13.15,10.42-4.94,17.63-15.56,17.63-27.86Z"></path><circle class="cls-1" cx="678.3" cy="1243.29" r="30.82"></circle><circle class="cls-1" cx="678.3" cy="1147.65" r="30.82" transform="translate(-641.56 1335.13) rotate(-67.5)"></circle><circle class="cls-1" cx="582.66" cy="1243.29" r="30.82"></circle><circle class="cls-1" cx="582.66" cy="1147.65" r="30.82" transform="translate(-248.09 164.57) rotate(-13.28)"></circle><path class="cls-1" d="M487.02,1308.11c-8.33,0-15.89,3.31-21.44,8.69,17.16,8.02,34.59,15.59,52.24,22.64,0-.17.01-.34.01-.51,0-17.02-13.8-30.82-30.82-30.82Z"></path><circle class="cls-1" cx="487.02" cy="1243.29" r="30.82" transform="translate(-736.49 708.53) rotate(-45)"></circle><circle class="cls-1" cx="487.02" cy="1147.65" r="30.82" transform="translate(-250.65 142.6) rotate(-13.28)"></circle><path class="cls-1" d="M422.2,1243.29c0-17.02-13.8-30.82-30.82-30.82s-30.82,13.8-30.82,30.82c0,9.44,4.25,17.88,10.93,23.53,2.94,1.76,5.89,3.51,8.85,5.24,3.43,1.31,7.14,2.04,11.03,2.04,17.02,0,30.82-13.8,30.82-30.82Z"></path><circle class="cls-1" cx="391.39" cy="1147.65" r="30.82" transform="translate(-253.21 120.62) rotate(-13.28)"></circle><circle class="cls-1" cx="678.3" cy="1052.01" r="30.82" transform="translate(-159.75 122.24) rotate(-9.22)"></circle><circle class="cls-1" cx="678.3" cy="956.37" r="30.82" transform="translate(-477.59 759.75) rotate(-45)"></circle><circle class="cls-1" cx="582.66" cy="1052.01" r="30.82" transform="translate(-160.99 106.92) rotate(-9.22)"></circle><circle class="cls-1" cx="582.66" cy="956.37" r="30.82" transform="translate(-523.89 1128.69) rotate(-67.5)"></circle><circle class="cls-1" cx="678.3" cy="860.74" r="30.82" transform="translate(-129.12 119.77) rotate(-9.22)"></circle><circle class="cls-1" cx="678.3" cy="765.1" r="30.82"></circle><circle class="cls-1" cx="582.66" cy="860.74" r="30.82" transform="translate(-437.97 664.11) rotate(-45)"></circle><circle class="cls-1" cx="582.66" cy="765.1" r="30.82"></circle><circle class="cls-1" cx="487.02" cy="1052.01" r="30.82"></circle><circle class="cls-1" cx="487.02" cy="956.37" r="30.82" transform="translate(-582.93 1040.34) rotate(-67.5)"></circle><circle class="cls-1" cx="391.39" cy="1052.01" r="30.82"></circle><circle class="cls-1" cx="391.39" cy="956.37" r="30.82" transform="translate(-561.62 556.87) rotate(-45)"></circle><circle class="cls-1" cx="487.02" cy="860.74" r="30.82"></circle><circle class="cls-1" cx="487.02" cy="765.1" r="30.82"></circle><circle class="cls-1" cx="391.39" cy="860.74" r="30.82"></circle><circle class="cls-1" cx="391.39" cy="765.1" r="30.82"></circle><path class="cls-1" d="M295.75,1212.47c-1.87,0-3.7.18-5.48.5,11.65,8.55,23.61,16.94,35.86,25.13-2.47-14.55-15.12-25.63-30.38-25.63Z"></path><circle class="cls-1" cx="295.75" cy="1147.65" r="30.82"></circle><path class="cls-1" d="M200.11,1116.83c-6.1,0-11.79,1.78-16.58,4.84,1.99,2,4,3.99,6.03,5.98,11.9,11.74,24.45,23.36,37.57,34.82,2.42-4.4,3.8-9.45,3.8-14.82,0-17.02-13.8-30.82-30.82-30.82Z"></path><circle class="cls-1" cx="295.75" cy="1052.01" r="30.82" transform="translate(-164.69 60.96) rotate(-9.22)"></circle><circle class="cls-1" cx="295.75" cy="956.37" r="30.82" transform="translate(-149.38 59.72) rotate(-9.22)"></circle><circle class="cls-1" cx="200.11" cy="1052.01" r="30.82" transform="translate(-165.93 45.64) rotate(-9.22)"></circle><circle class="cls-1" cx="200.11" cy="956.37" r="30.82"></circle><circle class="cls-1" cx="295.75" cy="860.74" r="30.82" transform="translate(-134.06 58.49) rotate(-9.22)"></circle><circle class="cls-1" cx="295.75" cy="765.1" r="30.82" transform="translate(-524.29 745.54) rotate(-67.5)"></circle><circle class="cls-1" cx="200.11" cy="860.74" r="30.82" transform="translate(-192.4 69) rotate(-13.28)"></circle><circle class="cls-1" cx="200.11" cy="765.1" r="30.82" transform="translate(-583.33 657.19) rotate(-67.5)"></circle><path class="cls-1" d="M104.47,1021.19c-1.48,0-2.94.11-4.37.31,9.94,14.62,20.7,29.12,32.32,43.49,1.84-3.95,2.87-8.34,2.87-12.98,0-17.02-13.8-30.82-30.82-30.82Z"></path><circle class="cls-1" cx="104.47" cy="956.37" r="30.82"></circle><circle class="cls-1" cx="104.47" cy="860.74" r="30.82"></circle><circle class="cls-1" cx="104.47" cy="765.1" r="30.82"></circle><path class="cls-1" d="M39.65,860.74c0-14.81-10.45-27.17-24.37-30.14,4.12,17.48,9.12,34.89,15.04,52.22,5.75-5.6,9.33-13.42,9.33-22.08Z"></path><path class="cls-1" d="M39.65,765.1c0-17.02-13.8-30.82-30.82-30.82-2.63,0-5.18.33-7.62.95,1.28,20.26,3.6,40.49,7.03,60.67.2,0,.39.01.59.01,17.02,0,30.82-13.8,30.82-30.82Z"></path><path class="cls-1" d="M1252.13,1116.83c-17.02,0-30.82,13.8-30.82,30.82,0,15.86,11.99,28.92,27.4,30.63,10.94-13.8,21.52-28.09,31.73-42.82-4.73-10.95-15.62-18.62-28.31-18.62Z"></path><path class="cls-1" d="M1156.49,1212.47c-17.02,0-30.82,13.8-30.82,30.82s13.8,30.82,30.82,30.82c.35,0,.7-.01,1.05-.03,10.04-8.65,19.89-17.71,29.54-27.15.14-1.2.22-2.41.22-3.64,0-17.02-13.8-30.82-30.82-30.82Z"></path><circle class="cls-1" cx="1156.49" cy="1147.65" r="30.82" transform="translate(-472.78 1153.9) rotate(-45)"></circle><path class="cls-1" d="M1316.94,1052.01c0,6.36,1.93,12.26,5.22,17.17,8.96-15.67,17.53-31.68,25.68-47.98-.03,0-.06,0-.09,0-17.02,0-30.82,13.8-30.82,30.82Z"></path><path class="cls-1" d="M1347.76,925.55c-17.02,0-30.82,13.8-30.82,30.82s13.8,30.82,30.82,30.82c7.34,0,14.08-2.57,19.37-6.85,3.9-8.77,7.68-17.6,11.34-26.5-1.29-15.83-14.54-28.29-30.71-28.29Z"></path><path class="cls-1" d="M1415.46,847.73c-1.28,2.75-2.17,5.72-2.59,8.85.88-2.95,1.74-5.89,2.59-8.85Z"></path><path class="cls-1" d="M1412.58,765.1c0,12.07,6.95,22.52,17.06,27.58,4.41-19.41,8.2-38.87,11.35-58.29-15.89,1.23-28.41,14.51-28.41,30.72Z"></path><circle class="cls-1" cx="1347.76" cy="860.74" r="30.82"></circle><circle class="cls-1" cx="1347.76" cy="765.1" r="30.82" transform="translate(-105.15 225.77) rotate(-9.22)"></circle><circle class="cls-1" cx="1252.13" cy="1052.01" r="30.82" transform="translate(-377.15 1193.51) rotate(-45)"></circle><circle class="cls-1" cx="1252.13" cy="956.37" r="30.82"></circle><circle class="cls-1" cx="1156.49" cy="1052.01" r="30.82" transform="translate(-405.16 1125.89) rotate(-45)"></circle><circle class="cls-1" cx="1156.49" cy="956.37" r="30.82" transform="translate(-138.26 197.6) rotate(-9.22)"></circle><circle class="cls-1" cx="1252.13" cy="860.74" r="30.82" transform="translate(-121.71 211.68) rotate(-9.22)"></circle><circle class="cls-1" cx="1252.13" cy="765.1" r="30.82"></circle><circle class="cls-1" cx="1156.49" cy="860.74" r="30.82" transform="translate(-122.94 196.36) rotate(-9.22)"></circle><circle class="cls-1" cx="1156.49" cy="765.1" r="30.82"></circle><path class="cls-1" d="M1060.85,1308.11c-17.02,0-30.82,13.8-30.82,30.82,0,5.6,1.5,10.85,4.12,15.38,13.37-6.15,26.56-12.96,39.51-20.46,4.94-2.82,9.85-5.76,14.72-8.77-5.07-10.06-15.49-16.97-27.53-16.97Z"></path><circle class="cls-1" cx="965.21" cy="1338.93" r="30.82"></circle><circle class="cls-1" cx="1060.85" cy="1243.29" r="30.82" transform="translate(-185.45 185.98) rotate(-9.22)"></circle><circle class="cls-1" cx="1060.85" cy="1147.65" r="30.82"></circle><circle class="cls-1" cx="965.21" cy="1243.29" r="30.82" transform="translate(-186.69 170.66) rotate(-9.22)"></circle><circle class="cls-1" cx="965.21" cy="1147.65" r="30.82"></circle><circle class="cls-1" cx="869.57" cy="1338.93" r="30.82" transform="translate(-284.36 235.61) rotate(-13.28)"></circle><circle class="cls-1" cx="773.94" cy="1338.93" r="30.82" transform="translate(-204.48 141.26) rotate(-9.22)"></circle><circle class="cls-1" cx="869.57" cy="1243.29" r="30.82" transform="translate(-262.39 233.05) rotate(-13.28)"></circle><circle class="cls-1" cx="869.57" cy="1147.65" r="30.82" transform="translate(-556.82 951.02) rotate(-45)"></circle><circle class="cls-1" cx="773.94" cy="1243.29" r="30.82" transform="translate(-189.16 140.02) rotate(-9.22)"></circle><circle class="cls-1" cx="773.94" cy="1147.65" r="30.82" transform="translate(-584.83 883.39) rotate(-45)"></circle><circle class="cls-1" cx="1060.85" cy="1052.01" r="30.82"></circle><circle class="cls-1" cx="1060.85" cy="956.37" r="30.82" transform="translate(-365.54 1030.25) rotate(-45)"></circle><circle class="cls-1" cx="965.21" cy="1052.01" r="30.82"></circle><circle class="cls-1" cx="965.21" cy="956.37" r="30.82" transform="translate(-287.73 1482.13) rotate(-67.5)"></circle><circle class="cls-1" cx="1060.85" cy="860.74" r="30.82"></circle><circle class="cls-1" cx="1060.85" cy="765.1" r="30.82" transform="translate(-108.86 179.81) rotate(-9.22)"></circle><circle class="cls-1" cx="965.21" cy="860.74" r="30.82"></circle><circle class="cls-1" cx="965.21" cy="765.1" r="30.82" transform="translate(-110.09 164.49) rotate(-9.22)"></circle><circle class="cls-1" cx="869.57" cy="1052.01" r="30.82" transform="translate(-489.19 923.01) rotate(-45)"></circle><circle class="cls-1" cx="869.57" cy="956.37" r="30.82"></circle><circle class="cls-1" cx="773.94" cy="1052.01" r="30.82" transform="translate(-517.2 855.38) rotate(-45)"></circle><circle class="cls-1" cx="773.94" cy="956.37" r="30.82"></circle><circle class="cls-1" cx="869.57" cy="860.74" r="30.82" transform="translate(-126.65 150.4) rotate(-9.22)"></circle><circle class="cls-1" cx="869.57" cy="765.1" r="30.82"></circle><circle class="cls-1" cx="773.94" cy="860.74" r="30.82" transform="translate(-127.88 135.08) rotate(-9.22)"></circle><circle class="cls-1" cx="773.94" cy="765.1" r="30.82"></circle></g></svg>